<svg xmlns="http://www.w3.org/2000/svg" viewBox="0 0 200 200" fill="none">
  <path d="M35 85 C35 70, 50 60, 65 60 L135 60 C150 60, 165 70, 165 85 L165 115 C165 130, 150 140, 135 140 L65 140 C50 140, 35 130, 35 115 Z" fill="#B30C00" />
  <path d="M55 100 A45 40 0 0 1 145 100 A45 40 0 0 1 55 100 Z" fill="#B30C00" />
  <path d="M55 100 A45 40 0 0 0 145 100 A45 40 0 0 0 55 100 Z" fill="#B30C00" />

  <text x="100" y="107" font-family="Arial, sans-serif" font-size="22" font-weight="bold" text-anchor="middle" fill="#FFFFFF">ROMOTOP</text>
</svg> 